<svg width="359" height="219" viewBox="0 0 359 219" fill="none" xmlns="http://www.w3.org/2000/svg">
<path d="M2.15724 -3.43839C1.09406 -6.67224 3.50299 -10 6.90713 -10H352.093C355.497 -10 357.906 -6.67224 356.843 -3.43839L297.993 175.562C297.319 177.613 295.403 179 293.243 179H65.7565C63.5968 179 61.6812 177.613 61.0067 175.562L2.15724 -3.43839Z" fill="#4DD2FF"/>
<path d="M41.9249 -4.21111C41.4396 -7.24871 43.7862 -10 46.8623 -10H312.138C315.214 -10 317.56 -7.24871 317.075 -4.21111L282.084 214.789C281.696 217.215 279.603 219 277.146 219H81.8538C79.3969 219 77.3041 217.215 76.9164 214.789L41.9249 -4.21111Z" fill="#F4F4F4"/>
<path fill-rule="evenodd" clip-rule="evenodd" d="M171.931 134.199L184.59 115.993C184.59 115.993 183.782 121.195 183.872 125.948C184.052 133.078 177.991 141.149 177.991 141.149L175.163 144.916L171.931 134.199Z" fill="#4DD2FF"/>
<path fill-rule="evenodd" clip-rule="evenodd" d="M167.038 122.45L191.009 88.8636C191.009 88.8636 191.548 92.6752 191.683 97.4284C191.862 104.558 185.802 112.63 185.802 112.63L171.258 133.706L167.038 122.45Z" fill="#4EAAFE"/>
<path fill-rule="evenodd" clip-rule="evenodd" d="M160.395 110.926L200.212 57.295C200.212 57.295 200.75 61.7792 200.885 66.5324C201.065 73.6623 195.004 81.7338 195.004 81.7338L166.41 121.643L160.395 110.926Z" fill="url(#paint0_linear_61_15)"/>
<path fill-rule="evenodd" clip-rule="evenodd" d="M152.449 99.0877C152.449 99.0877 156.848 94.3792 184.141 59.0438C205.868 29.9414 197.922 19 197.922 19C197.922 19 205.509 27.2061 206.541 33.9324C207.529 44.4254 197.743 59.0438 197.743 59.0438L159.856 110.477L152.449 99.0877Z" fill="url(#paint1_linear_61_15)"/>
<path d="M126.412 178.402C125.288 178.946 123.82 179.218 122.009 179.218C119.646 179.218 117.788 178.523 116.435 177.134C115.082 175.745 114.406 173.895 114.406 171.582C114.406 169.119 115.164 167.122 116.682 165.59C118.207 164.058 120.183 163.292 122.61 163.292C124.114 163.292 125.381 163.481 126.412 163.861V167.201C125.381 166.585 124.207 166.277 122.89 166.277C121.443 166.277 120.276 166.732 119.389 167.641C118.501 168.55 118.057 169.782 118.057 171.335C118.057 172.824 118.476 174.013 119.313 174.901C120.151 175.781 121.279 176.222 122.696 176.222C124.049 176.222 125.288 175.892 126.412 175.234V178.402Z" fill="black"/>
<path d="M139.826 163.549L134.811 173.472V178.949H131.342V173.537L126.456 163.549H130.419L132.899 169.295C132.942 169.402 133.06 169.821 133.254 170.551H133.297C133.39 170.036 133.501 169.631 133.63 169.338L136.153 163.549H139.826Z" fill="black"/>
<path d="M152.542 178.949H148.762L147.667 175.524H142.19L141.105 178.949H137.346L142.952 163.549H147.065L152.542 178.949ZM146.872 172.86L145.218 167.684C145.096 167.297 145.011 166.835 144.96 166.298H144.874C144.839 166.75 144.749 167.197 144.606 167.641L142.931 172.86H146.872Z" fill="black"/>
<path d="M167.438 178.949H163.938L157.591 169.273C157.218 168.708 156.961 168.282 156.817 167.995H156.774C156.832 168.539 156.86 169.37 156.86 170.487V178.949H153.585V163.549H157.322L163.433 172.925C163.712 173.347 163.97 173.766 164.206 174.181H164.249C164.192 173.823 164.163 173.118 164.163 172.065V163.549H167.438V178.949Z" fill="black"/>
<path d="M174.571 178.359V174.922C175.194 175.445 175.871 175.839 176.601 176.103C177.331 176.361 178.068 176.49 178.813 176.49C179.25 176.49 179.629 176.451 179.951 176.372C180.281 176.293 180.553 176.186 180.768 176.05C180.99 175.907 181.154 175.742 181.262 175.556C181.369 175.362 181.423 175.155 181.423 174.933C181.423 174.632 181.337 174.364 181.165 174.127C180.993 173.891 180.757 173.673 180.456 173.472C180.163 173.272 179.812 173.079 179.404 172.892C178.996 172.706 178.555 172.517 178.083 172.323C176.88 171.822 175.981 171.21 175.387 170.487C174.8 169.764 174.507 168.89 174.507 167.866C174.507 167.065 174.668 166.377 174.99 165.804C175.312 165.225 175.749 164.748 176.3 164.376C176.859 164.004 177.503 163.732 178.233 163.56C178.963 163.381 179.737 163.292 180.553 163.292C181.355 163.292 182.063 163.342 182.679 163.442C183.302 163.535 183.875 163.682 184.397 163.882V167.093C184.14 166.914 183.857 166.757 183.549 166.621C183.248 166.485 182.937 166.374 182.615 166.288C182.293 166.195 181.97 166.127 181.648 166.084C181.333 166.041 181.033 166.019 180.746 166.019C180.352 166.019 179.994 166.059 179.672 166.137C179.35 166.209 179.078 166.313 178.856 166.449C178.634 166.585 178.462 166.75 178.341 166.943C178.219 167.129 178.158 167.34 178.158 167.576C178.158 167.834 178.226 168.067 178.362 168.275C178.498 168.475 178.691 168.668 178.942 168.854C179.193 169.033 179.497 169.212 179.855 169.391C180.213 169.563 180.617 169.742 181.068 169.928C181.684 170.186 182.235 170.462 182.722 170.755C183.216 171.042 183.639 171.367 183.989 171.733C184.34 172.098 184.609 172.517 184.795 172.989C184.981 173.454 185.074 173.999 185.074 174.621C185.074 175.481 184.909 176.204 184.58 176.791C184.258 177.371 183.818 177.843 183.259 178.208C182.701 178.566 182.049 178.824 181.305 178.982C180.567 179.139 179.787 179.218 178.963 179.218C178.119 179.218 177.313 179.146 176.547 179.003C175.788 178.86 175.13 178.645 174.571 178.359Z" fill="black"/>
<path d="M197.543 166.374H193.151V178.949H189.671V166.374H185.3V163.549H197.543V166.374Z" fill="black"/>
<path d="M204.256 179.218C202.051 179.218 200.254 178.502 198.865 177.07C197.476 175.631 196.782 173.759 196.782 171.453C196.782 169.019 197.487 167.05 198.897 165.547C200.308 164.043 202.176 163.292 204.503 163.292C206.701 163.292 208.477 164.011 209.83 165.45C211.19 166.889 211.87 168.786 211.87 171.142C211.87 173.562 211.165 175.513 209.755 176.995C208.351 178.477 206.518 179.218 204.256 179.218ZM204.406 166.277C203.189 166.277 202.223 166.735 201.507 167.652C200.791 168.561 200.433 169.767 200.433 171.271C200.433 172.796 200.791 174.002 201.507 174.89C202.223 175.778 203.161 176.222 204.321 176.222C205.516 176.222 206.465 175.792 207.166 174.933C207.868 174.067 208.219 172.867 208.219 171.335C208.219 169.739 207.879 168.496 207.199 167.609C206.518 166.721 205.588 166.277 204.406 166.277Z" fill="black"/>
<path d="M226.476 178.949H222.492L220.097 174.987C219.918 174.686 219.747 174.417 219.582 174.181C219.417 173.945 219.249 173.744 219.077 173.58C218.912 173.408 218.737 173.279 218.551 173.193C218.372 173.1 218.175 173.053 217.96 173.053H217.026V178.949H213.557V163.549H219.056C222.793 163.549 224.661 164.945 224.661 167.738C224.661 168.275 224.579 168.772 224.414 169.23C224.25 169.681 224.017 170.089 223.716 170.455C223.416 170.82 223.051 171.135 222.621 171.4C222.199 171.665 221.726 171.872 221.203 172.023V172.065C221.433 172.137 221.655 172.255 221.869 172.42C222.084 172.577 222.292 172.764 222.492 172.978C222.693 173.193 222.882 173.426 223.061 173.676C223.247 173.92 223.416 174.16 223.566 174.396L226.476 178.949ZM217.026 166.148V170.433H218.529C219.274 170.433 219.872 170.218 220.323 169.789C220.781 169.352 221.01 168.811 221.01 168.167C221.01 166.821 220.205 166.148 218.594 166.148H217.026Z" fill="black"/>
<path d="M244.594 178.949H241.169V169.735C241.169 168.74 241.212 167.641 241.297 166.438H241.212C241.033 167.383 240.871 168.063 240.728 168.479L237.12 178.949H234.285L230.612 168.586C230.512 168.307 230.351 167.591 230.129 166.438H230.032C230.125 167.956 230.172 169.288 230.172 170.433V178.949H227.046V163.549H232.126L235.273 172.678C235.523 173.408 235.706 174.142 235.82 174.879H235.885C236.078 174.027 236.282 173.286 236.497 172.656L239.644 163.549H244.594V178.949Z" fill="black"/>
<path d="M147.128 199.55C146.365 199.999 145.512 200.178 144.615 200.178C143.537 200.178 142.684 199.819 142.011 199.147C141.338 198.474 141.023 197.533 141.023 196.411C141.023 195.246 141.383 194.304 142.146 193.542C142.909 192.779 143.807 192.421 144.974 192.421C145.782 192.421 146.5 192.555 147.039 192.824V193.811C146.41 193.407 145.692 193.228 144.884 193.228C144.031 193.228 143.358 193.497 142.819 194.08C142.28 194.663 142.011 195.425 142.011 196.322C142.011 197.263 142.28 198.026 142.774 198.564C143.268 199.102 143.941 199.371 144.794 199.371C145.378 199.371 145.872 199.237 146.32 199.012V196.95H144.659V196.142H147.173V199.55H147.128Z" fill="#858585"/>
<path d="M155.792 200.089H154.805L153.997 197.981H150.81L150.046 200.089H149.059L151.932 192.555H152.83L155.792 200.089ZM153.727 197.174L152.56 193.945C152.515 193.856 152.47 193.676 152.426 193.452C152.381 193.676 152.336 193.856 152.291 193.945L151.124 197.174H153.727Z" fill="#858585"/>
<path d="M165.668 200.089H164.77V195.021C164.77 194.618 164.815 194.125 164.86 193.542C164.77 193.9 164.68 194.125 164.635 194.259L162.076 200.044H161.628L159.069 194.304C158.979 194.125 158.934 193.9 158.844 193.542C158.889 193.856 158.889 194.349 158.889 195.021V200.089H158.036V192.555H159.204L161.538 197.802C161.717 198.205 161.852 198.519 161.897 198.698H161.942C162.076 198.295 162.211 197.981 162.301 197.757L164.68 192.51H165.802V200.089H165.668Z" fill="#858585"/>
<path d="M172.716 200.089H168.72V192.555H172.536V193.362H169.573V195.873H172.312V196.681H169.573V199.326H172.671V200.089H172.716Z" fill="#858585"/>
<path d="M178.91 199.775V198.743C179.045 198.833 179.179 198.923 179.359 199.012C179.539 199.102 179.718 199.147 179.898 199.237C180.077 199.326 180.257 199.326 180.436 199.371C180.616 199.416 180.796 199.416 180.93 199.416C181.469 199.416 181.873 199.326 182.142 199.102C182.412 198.878 182.546 198.609 182.546 198.25C182.546 198.026 182.501 197.891 182.412 197.712C182.322 197.533 182.187 197.443 182.052 197.308C181.918 197.174 181.693 197.084 181.514 196.95C181.334 196.815 181.065 196.725 180.796 196.591C180.526 196.456 180.302 196.322 180.077 196.187C179.853 196.053 179.673 195.918 179.494 195.739C179.314 195.559 179.179 195.38 179.09 195.201C179 195.021 178.955 194.752 178.955 194.483C178.955 194.125 179.045 193.855 179.179 193.586C179.314 193.317 179.539 193.138 179.763 192.959C179.988 192.779 180.302 192.69 180.616 192.6C180.93 192.51 181.244 192.465 181.559 192.465C182.322 192.465 182.86 192.555 183.175 192.734V193.721C182.726 193.407 182.142 193.273 181.469 193.273C181.289 193.273 181.065 193.273 180.885 193.317C180.706 193.362 180.526 193.407 180.392 193.497C180.257 193.586 180.122 193.721 180.032 193.855C179.943 193.99 179.898 194.169 179.898 194.394C179.898 194.573 179.943 194.752 179.988 194.887C180.032 195.021 180.167 195.156 180.302 195.29C180.436 195.425 180.616 195.515 180.796 195.649C180.975 195.784 181.244 195.873 181.514 196.008C181.783 196.142 182.052 196.277 182.277 196.411C182.501 196.546 182.726 196.725 182.905 196.905C183.085 197.084 183.22 197.263 183.354 197.488C183.489 197.712 183.534 197.936 183.534 198.25C183.534 198.609 183.444 198.923 183.309 199.192C183.175 199.461 182.95 199.64 182.726 199.819C182.501 199.999 182.187 200.089 181.873 200.178C181.559 200.268 181.2 200.268 180.84 200.268C180.706 200.268 180.571 200.268 180.392 200.223C180.212 200.178 180.032 200.178 179.853 200.133C179.673 200.089 179.494 200.044 179.314 199.999C179.135 199.954 179 199.864 178.91 199.775Z" fill="#858585"/>
<path d="M190.537 193.362H188.337V200.089H187.439V193.362H185.285V192.555H190.537V193.362Z" fill="#858585"/>
<path d="M198.303 197.039C198.303 199.147 197.36 200.223 195.43 200.223C193.589 200.223 192.692 199.192 192.692 197.174V192.555H193.589V197.084C193.589 198.609 194.263 199.416 195.565 199.416C196.822 199.416 197.45 198.654 197.45 197.174V192.555H198.348V197.039H198.303Z" fill="#858585"/>
<path d="M201.265 200.089V192.555H203.33C205.979 192.555 207.325 193.766 207.325 196.232C207.325 197.398 206.966 198.34 206.203 199.057C205.44 199.775 204.497 200.133 203.241 200.133H201.265V200.089ZM202.163 193.362V199.281H203.285C204.273 199.281 205.036 199.012 205.575 198.474C206.113 197.936 206.383 197.174 206.383 196.232C206.383 194.304 205.35 193.317 203.285 193.317H202.163V193.362Z" fill="#858585"/>
<path d="M210.782 200.089H209.884V192.555H210.782V200.089Z" fill="#858585"/>
<path d="M216.887 200.223C215.809 200.223 214.956 199.864 214.328 199.147C213.699 198.429 213.34 197.533 213.34 196.412C213.34 195.201 213.655 194.214 214.328 193.497C215.001 192.779 215.854 192.421 217.021 192.421C218.054 192.421 218.907 192.779 219.535 193.452C220.164 194.125 220.478 195.066 220.478 196.187C220.478 197.398 220.164 198.385 219.49 199.102C218.817 199.82 217.964 200.223 216.887 200.223ZM216.932 193.228C216.123 193.228 215.495 193.497 215.001 194.08C214.507 194.663 214.238 195.38 214.238 196.322C214.238 197.264 214.463 197.981 214.956 198.564C215.45 199.147 216.079 199.416 216.842 199.416C217.65 199.416 218.323 199.147 218.817 198.609C219.311 198.071 219.535 197.308 219.535 196.322C219.535 195.335 219.311 194.573 218.862 194.035C218.413 193.497 217.784 193.228 216.932 193.228Z" fill="#858585"/>
<defs>
<linearGradient id="paint0_linear_61_15" x1="164.613" y1="114.638" x2="202.542" y2="63.0857" gradientUnits="userSpaceOnUse">
<stop stop-color="#7FB4FF"/>
<stop offset="0.2765" stop-color="#4F82FD"/>
</linearGradient>
<linearGradient id="paint1_linear_61_15" x1="151.865" y1="98.5083" x2="208.301" y2="27.8108" gradientUnits="userSpaceOnUse">
<stop stop-color="#9AB3FF"/>
<stop offset="0.2765" stop-color="#4F65FD"/>
</linearGradient>
</defs>
</svg>
