<svg width="47" height="47" viewBox="0 0 47 47" fill="none" xmlns="http://www.w3.org/2000/svg">
<path d="M46.0169 12.1142C45.7514 11.1141 45.2278 10.2012 44.4984 9.4671C43.7691 8.73297 42.8597 8.20334 41.8613 7.93125C38.1973 6.94229 23.5 6.94229 23.5 6.94229C23.5 6.94229 8.80271 6.94229 5.13671 7.93125C4.13876 8.20382 3.22987 8.73364 2.50094 9.46772C1.77202 10.2018 1.24862 11.1144 0.983083 12.1142C0 15.8037 0 23.5 0 23.5C0 23.5 0 31.1962 0.983083 34.8857C1.24861 35.8859 1.77224 36.7988 2.50156 37.5329C3.23087 38.267 4.14026 38.7967 5.13867 39.0688C8.80271 40.0577 23.5 40.0577 23.5 40.0577C23.5 40.0577 38.1973 40.0577 41.8633 39.0688C42.8618 38.7968 43.7713 38.2673 44.5006 37.5331C45.23 36.799 45.7535 35.886 46.0189 34.8857C47 31.1962 47 23.5 47 23.5C47 23.5 47 15.8037 46.0169 12.1142ZM18.6923 30.4873V16.5127L30.9769 23.5L18.6923 30.4873Z" fill="#8AA3B6"/>
</svg>
