<svg width="47" height="47" viewBox="0 0 47 47" fill="none" xmlns="http://www.w3.org/2000/svg">
<path d="M23.5 0C17.1158 0 16.3188 0.029375 13.8121 0.141C11.3094 0.2585 9.60563 0.652125 8.1075 1.23375C6.56238 1.833 5.25029 2.63787 3.94408 3.94408C2.63787 5.25029 1.83104 6.56042 1.23375 8.1075C0.652125 9.60563 0.256542 11.3094 0.141 13.8121C0.0235 16.3188 0 17.1158 0 23.5C0 29.8842 0.029375 30.6812 0.141 33.1879C0.2585 35.6887 0.652125 37.3944 1.23375 38.8925C1.833 40.4357 2.63787 41.7497 3.94408 43.0559C5.25029 44.3602 6.56042 45.169 8.1075 45.7663C9.60758 46.3459 11.3113 46.7435 13.8121 46.859C16.3188 46.9765 17.1158 47 23.5 47C29.8842 47 30.6812 46.9706 33.1879 46.859C35.6887 46.7415 37.3944 46.3459 38.8925 45.7663C40.4357 45.167 41.7497 44.3602 43.0559 43.0559C44.3602 41.7497 45.169 40.4415 45.7663 38.8925C46.3459 37.3944 46.7435 35.6887 46.859 33.1879C46.9765 30.6812 47 29.8842 47 23.5C47 17.1158 46.9706 16.3188 46.859 13.8121C46.7415 11.3113 46.3459 9.60367 45.7663 8.1075C45.167 6.56238 44.3602 5.25029 43.0559 3.94408C41.7497 2.63787 40.4415 1.83104 38.8925 1.23375C37.3944 0.652125 35.6887 0.256542 33.1879 0.141C30.6812 0.0235 29.8842 0 23.5 0ZM23.5 4.23C29.7725 4.23 30.5206 4.26133 32.9979 4.36904C35.2892 4.47675 36.5327 4.85667 37.3591 5.18175C38.4597 5.60671 39.2391 6.11588 40.0655 6.93642C40.8861 7.75892 41.3952 8.54029 41.8202 9.64087C42.1414 10.4673 42.5252 11.7108 42.629 14.0021C42.7406 16.4813 42.7661 17.2255 42.7661 23.5C42.7661 29.7745 42.7367 30.5206 42.6212 32.9979C42.5017 35.2892 42.1198 36.5327 41.7967 37.3591C41.358 38.4597 40.8587 39.2391 40.0362 40.0655C39.2156 40.8861 38.4225 41.3952 37.3337 41.8202C36.5112 42.1414 35.248 42.5252 32.9568 42.629C30.4619 42.7406 29.7275 42.7661 23.4413 42.7661C17.153 42.7661 16.4187 42.7367 13.9257 42.6212C11.6325 42.5017 10.3694 42.1198 9.54688 41.7967C8.43258 41.358 7.66688 40.8587 6.84633 40.0362C6.02188 39.2156 5.49508 38.4225 5.08383 37.3337C4.76071 36.5112 4.38079 35.248 4.26133 32.9568C4.17321 30.4893 4.14188 29.7275 4.14188 23.4706C4.14188 17.2118 4.17321 16.448 4.26133 13.9512C4.38079 11.6599 4.76071 10.3988 5.08383 9.57625C5.49508 8.46 6.02188 7.69625 6.84633 6.87179C7.66688 6.05125 8.43258 5.5225 9.54688 5.11321C10.3694 4.78813 11.6051 4.40625 13.8963 4.28875C16.3932 4.20063 17.1276 4.17125 23.4119 4.17125L23.5 4.23ZM23.5 11.4327C16.8319 11.4327 11.4327 16.8378 11.4327 23.5C11.4327 30.1681 16.8378 35.5673 23.5 35.5673C30.1681 35.5673 35.5673 30.1623 35.5673 23.5C35.5673 16.8319 30.1623 11.4327 23.5 11.4327ZM23.5 31.3333C19.1721 31.3333 15.6667 27.8279 15.6667 23.5C15.6667 19.1721 19.1721 15.6667 23.5 15.6667C27.8279 15.6667 31.3333 19.1721 31.3333 23.5C31.3333 27.8279 27.8279 31.3333 23.5 31.3333ZM38.8651 10.9569C38.8651 12.5138 37.6 13.7769 36.0451 13.7769C34.4882 13.7769 33.2251 12.5118 33.2251 10.9569C33.2251 9.40196 34.4902 8.13883 36.0451 8.13883C37.598 8.13688 38.8651 9.40196 38.8651 10.9569Z" fill="#8AA3B6"/>
</svg>
